<svg width="20" height="21" viewBox="0 0 20 21" fill="none" xmlns="http://www.w3.org/2000/svg">
<path d="M5.8 0.0351562H14.2C17.4 0.0351562 20 2.63516 20 5.83516V14.2352C20 15.7734 19.3889 17.2487 18.3012 18.3364C17.2135 19.4241 15.7383 20.0352 14.2 20.0352H5.8C2.6 20.0352 0 17.4352 0 14.2352V5.83516C0 4.2969 0.61107 2.82165 1.69878 1.73394C2.78649 0.646226 4.26174 0.0351563 5.8 0.0351562ZM5.6 2.03516C4.64522 2.03516 3.72955 2.41444 3.05442 3.08957C2.37928 3.7647 2 4.68038 2 5.63516V14.4352C2 16.4252 3.61 18.0352 5.6 18.0352H14.4C15.3548 18.0352 16.2705 17.6559 16.9456 16.9807C17.6207 16.3056 18 15.3899 18 14.4352V5.63516C18 3.64516 16.39 2.03516 14.4 2.03516H5.6ZM15.25 3.53516C15.5815 3.53516 15.8995 3.66685 16.1339 3.90127C16.3683 4.13569 16.5 4.45364 16.5 4.78516C16.5 5.11668 16.3683 5.43462 16.1339 5.66904C15.8995 5.90346 15.5815 6.03516 15.25 6.03516C14.9185 6.03516 14.6005 5.90346 14.3661 5.66904C14.1317 5.43462 14 5.11668 14 4.78516C14 4.45364 14.1317 4.13569 14.3661 3.90127C14.6005 3.66685 14.9185 3.53516 15.25 3.53516ZM10 5.03516C11.3261 5.03516 12.5979 5.56194 13.5355 6.49962C14.4732 7.4373 15 8.70907 15 10.0352C15 11.3612 14.4732 12.633 13.5355 13.5707C12.5979 14.5084 11.3261 15.0352 10 15.0352C8.67392 15.0352 7.40215 14.5084 6.46447 13.5707C5.52678 12.633 5 11.3612 5 10.0352C5 8.70907 5.52678 7.4373 6.46447 6.49962C7.40215 5.56194 8.67392 5.03516 10 5.03516ZM10 7.03516C9.20435 7.03516 8.44129 7.35123 7.87868 7.91384C7.31607 8.47644 7 9.23951 7 10.0352C7 10.8308 7.31607 11.5939 7.87868 12.1565C8.44129 12.7191 9.20435 13.0352 10 13.0352C10.7956 13.0352 11.5587 12.7191 12.1213 12.1565C12.6839 11.5939 13 10.8308 13 10.0352C13 9.23951 12.6839 8.47644 12.1213 7.91384C11.5587 7.35123 10.7956 7.03516 10 7.03516Z" fill="#FFEDD8"/>
</svg>
