<svg width="19" height="17" viewBox="0 0 19 17" fill="none" xmlns="http://www.w3.org/2000/svg">
<path d="M5.08001 16.035C6.55871 16.0844 8.03232 15.837 9.41375 15.3073C10.7952 14.7775 12.0564 13.9762 13.1229 12.9508C14.1894 11.9253 15.0395 10.6964 15.623 9.33684C16.2065 7.97723 16.5115 6.51445 16.52 5.03496C17.1977 4.19637 17.7009 3.23079 18 2.19496C18.0223 2.11312 18.0205 2.02657 17.9948 1.94573C17.9691 1.86489 17.9206 1.79321 17.855 1.73932C17.7895 1.68543 17.7098 1.65163 17.6256 1.64198C17.5413 1.63234 17.456 1.64726 17.38 1.68496C17.0255 1.85561 16.6264 1.91073 16.2389 1.84256C15.8514 1.77439 15.495 1.58636 15.22 1.30496C14.869 0.920535 14.4443 0.610487 13.9713 0.393183C13.4982 0.17588 12.9863 0.055743 12.466 0.0398901C11.9456 0.0240371 11.4274 0.112791 10.942 0.300893C10.4565 0.488995 10.0138 0.772618 9.64001 1.13496C9.12821 1.63061 8.75333 2.25025 8.55182 2.93363C8.35031 3.61702 8.32902 4.34091 8.49001 5.03496C5.14001 5.23496 2.84001 3.64496 1.00001 1.46496C0.944734 1.40236 0.872425 1.35721 0.791914 1.33503C0.711403 1.31284 0.626174 1.31458 0.546636 1.34003C0.467098 1.36549 0.396692 1.41355 0.344017 1.47835C0.291342 1.54316 0.258677 1.6219 0.250011 1.70496C-0.10052 3.64938 0.15234 5.6545 0.974629 7.45103C1.79692 9.24755 3.14926 10.7494 4.85001 11.755C3.70965 13.0628 2.10822 13.8796 0.380011 14.035C0.287423 14.0503 0.201953 14.0942 0.135562 14.1606C0.0691718 14.2269 0.025184 14.3123 0.00975474 14.4049C-0.00567449 14.4975 0.00822727 14.5926 0.0495144 14.6769C0.0908015 14.7611 0.157408 14.8304 0.240011 14.875C1.74353 15.6263 3.39924 16.0231 5.08001 16.035Z" fill="#FFEDD8"/>
</svg>
